<svg width="61" height="55" viewBox="0 0 61 55" fill="none" xmlns="http://www.w3.org/2000/svg">
<path d="M47.6711 1.43172C46.8169 0.577448 45.4318 0.577448 44.5776 1.43172L24.89 21.1192C24.0358 21.9735 24.0358 23.3585 24.89 24.2128L32.9109 32.2336C33.7652 33.0879 35.1502 33.0879 36.0045 32.2336L44.3014 23.9367L56.9734 36.6086C57.8277 37.4629 59.2127 37.4629 60.067 36.6086C60.9212 35.7544 60.9212 34.3693 60.067 33.5151L47.395 20.8431L55.692 12.5461C56.5462 11.6919 56.5462 10.3068 55.692 9.45255L47.6711 1.43172Z" fill="white"/>
<path d="M9.52018 15.8118C8.55368 15.087 7.18256 15.2829 6.45768 16.2493C5.73281 17.2158 5.92868 18.587 6.89518 19.3118L12.7285 23.6868C13.695 24.4117 15.0661 24.2158 15.791 23.2493C16.5159 22.2829 16.32 20.9117 15.3535 20.1868L9.52018 15.8118Z" fill="white"/>
<path d="M3.10352 29.9577C1.89539 29.9577 0.916016 30.9371 0.916016 32.1452C0.916016 33.3533 1.89539 34.3327 3.10352 34.3327H10.3952C11.6033 34.3327 12.5827 33.3533 12.5827 32.1452C12.5827 30.9371 11.6033 29.9577 10.3952 29.9577H3.10352Z" fill="white"/>
<path d="M11.8535 41.6243C10.9119 41.6243 10.076 42.2268 9.77827 43.1201L7.36019 50.3743H6.02018C4.81206 50.3743 3.83268 51.3537 3.83268 52.5618C3.83268 53.77 4.81206 54.7493 6.02018 54.7493H45.3952C46.6033 54.7493 47.5827 53.77 47.5827 52.5618C47.5827 51.3537 46.6033 50.3743 45.3952 50.3743H44.0552L41.6371 43.1201C41.3393 42.2268 40.5034 41.6243 39.5618 41.6243H11.8535Z" fill="white"/>
</svg>
