<svg width="11" height="7" viewBox="0 0 11 7" fill="none" xmlns="http://www.w3.org/2000/svg">
<path d="M4.6026 6.83268C4.39726 6.83268 4.20422 6.75268 4.05873 6.60745L0.725373 3.27401C0.580137 3.12872 0.5 2.93553 0.5 2.73008C0.5 2.52463 0.580137 2.33145 0.725373 2.18615C0.870609 2.04086 1.06391 1.96092 1.26925 1.96092C1.47458 1.96092 1.66788 2.04086 1.81312 2.18609L4.60262 4.97557L9.18698 0.391252C9.33222 0.245958 9.52552 0.166016 9.73085 0.166016C9.93618 0.166016 10.1295 0.245958 10.2747 0.391194C10.42 0.536547 10.5001 0.729732 10.5001 0.935203C10.5001 1.14067 10.42 1.33384 10.2747 1.47913L5.14647 6.60739C5.001 6.75268 4.80793 6.83268 4.6026 6.83268Z" fill="black"/>
</svg>
