<svg width="48" height="59" viewBox="0 0 48 59" fill="none" xmlns="http://www.w3.org/2000/svg">
<path fill-rule="evenodd" clip-rule="evenodd" d="M2.85352 0.333984C1.64539 0.333984 0.666016 1.31336 0.666016 2.52148V56.4798C0.666016 57.6879 1.64539 58.6673 2.85352 58.6673H45.1452C46.3533 58.6673 47.3327 57.6879 47.3327 56.4798V2.52148C47.3327 1.31336 46.3533 0.333984 45.1452 0.333984H2.85352ZM5.04102 54.2923V47.0006H42.9577V54.2923H5.04102ZM25.1898 15.4548C25.0486 15.737 24.8198 15.9658 24.5376 16.1069L20.7756 17.9879C19.7007 18.5254 19.7007 20.0593 20.7756 20.5967L24.5376 22.4777C24.8198 22.6188 25.0486 22.8477 25.1898 23.1299L27.0708 26.8919C27.6082 27.9668 29.1421 27.9668 29.6795 26.8919L31.5605 23.1299C31.7016 22.8477 31.9305 22.6188 32.2127 22.4777L35.9747 20.5967C37.0496 20.0593 37.0496 18.5254 35.9747 17.9879L32.2127 16.1069C31.9305 15.9658 31.7016 15.737 31.5605 15.4548L29.6795 11.6927C29.1421 10.6179 27.6082 10.6179 27.0708 11.6927L25.1898 15.4548ZM14.4084 28.2676C14.3237 28.4369 14.1864 28.5742 14.017 28.6589L10.9821 30.1764C10.3371 30.4988 10.3371 31.4192 10.9821 31.7416L14.017 33.2591C14.1864 33.3438 14.3237 33.4811 14.4084 33.6504L15.9259 36.6854C16.2483 37.3303 17.1686 37.3303 17.4911 36.6854L19.0086 33.6504C19.0933 33.4811 19.2306 33.3438 19.3999 33.2591L22.4349 31.7416C23.0798 31.4191 23.0798 30.4988 22.4349 30.1764L19.3999 28.6589C19.2306 28.5742 19.0933 28.4369 19.0086 28.2676L17.4911 25.2326C17.1686 24.5876 16.2483 24.5877 15.9259 25.2326L14.4084 28.2676Z" fill="white"/>
</svg>
