<svg width="54" height="59" viewBox="0 0 54 59" fill="none" xmlns="http://www.w3.org/2000/svg">
<path fill-rule="evenodd" clip-rule="evenodd" d="M0.666016 58.6673V0.333984H47.3327V27.2613C44.7149 25.8969 41.7389 25.1257 38.5827 25.1257C28.1123 25.1257 19.6243 33.6136 19.6243 44.084C19.6243 49.9478 22.2865 55.1898 26.4681 58.6673H0.666016ZM9.41602 9.08398H32.7493V13.459H9.41602V9.08398ZM9.41602 20.7507H21.0827V25.1257H9.41602V20.7507Z" fill="white"/>
<path fill-rule="evenodd" clip-rule="evenodd" d="M38.5827 29.5006C30.5285 29.5006 23.9993 36.0298 23.9993 44.084C23.9993 52.1381 30.5285 58.6673 38.5827 58.6673C42.6091 58.6673 46.258 57.0326 48.8947 54.396C51.5313 51.7593 53.166 48.1105 53.166 44.084C53.166 36.0298 46.6368 29.5006 38.5827 29.5006ZM28.3743 44.084C28.3743 39.1969 31.8085 35.112 36.3952 34.1106V44.9901L44.0878 52.6827C42.4991 53.7023 40.6109 54.2923 38.5827 54.2923C32.9448 54.2923 28.3743 49.7219 28.3743 44.084ZM40.7702 43.1779V34.1106C45.3569 35.112 48.791 39.1969 48.791 44.084C48.791 46.1122 48.201 48.0004 47.1814 49.5891L40.7702 43.1779Z" fill="white"/>
</svg>
